<?xml version="1.0" encoding="utf-8"?>
<!-- Generator: Adobe Illustrator 18.1.1, SVG Export Plug-In . SVG Version: 6.00 Build 0)  -->
<svg version="1.1" id="Layer_1" xmlns="http://www.w3.org/2000/svg" xmlns:xlink="http://www.w3.org/1999/xlink" x="0px" y="0px"
	 width="300px" height="300px" viewBox="0 0 300 300" enable-background="new 0 0 300 300" xml:space="preserve">
<polygon stroke="#000000" stroke-miterlimit="10" points="18.5,138.5 81.2,38.6 76.8,33.6 11.4,138.5 "/>
<polygon stroke="#000000" stroke-miterlimit="10" points="81,253.5 18.5,138.5 11,138.5 73.2,253.5 "/>
<polygon stroke="#000000" stroke-miterlimit="10" points="149.5,39 149.5,135 142.5,139 142.8,33.6 "/>
<polygon stroke="#000000" stroke-miterlimit="10" points="52.9,201.7 142.8,146.4 142.5,139 49.8,196 "/>
<polygon stroke="#000000" stroke-miterlimit="10" points="81.2,38.6 81,108.3 18.5,138.5 "/>
<polygon stroke="#000000" stroke-miterlimit="10" points="81,253.5 142.5,218.2 209,253.5 "/>
<polygon stroke="#000000" stroke-miterlimit="10" points="76.8,33.5 81.2,38.5 209,38.5 213.2,33.5 "/>
<path stroke="#000000" stroke-miterlimit="10" d="M73.2,253.5"/>
<polygon stroke="#000000" stroke-miterlimit="10" points="75.4,258.5 73.2,253.5 210.8,253.9 215.7,257.8 "/>
<polygon stroke="#000000" stroke-miterlimit="10" points="213.1,34 275.1,139.5 266,139.5 209,38.5 "/>
<polygon stroke="#000000" stroke-miterlimit="10" points="215.7,257.8 275.1,139.5 266,139.5 210.8,253.9 "/>
<polygon stroke="#000000" stroke-miterlimit="10" points="209,38.5 210.8,112.9 266,139.5 "/>
<polygon stroke="#000000" stroke-miterlimit="10" points="137.5,135 142.5,139 142.8,33.6 137.5,38.6 "/>
<polygon stroke="#000000" stroke-miterlimit="10" points="142.5,139 137.5,135 41.3,194.6 49.8,196 "/>
<polygon stroke="#000000" stroke-miterlimit="10" points="149.5,135 142.5,139 242.9,198.6 241.4,190.5 "/>
<polygon stroke="#000000" stroke-miterlimit="10" points="142.6,146.5 239.5,203.7 239.5,195 "/>
<polygon stroke="#000000" stroke-miterlimit="10" points="142.8,135 142.6,146.5 239.5,195 "/>
</svg>
